# Blender 3.6.7
# www.blender.org
mtllib mausoleum centered.mtl
o Cube.003
v -2.768797 -3.177241 -0.099282
v -2.768797 3.678792 -0.099283
v -2.768797 -3.177242 -6.652752
v -2.768797 3.678792 -6.652753
v 2.782876 -3.177241 -0.099282
v 2.782876 3.678792 -0.099283
v 2.782876 -3.177242 -6.652752
v 2.782876 3.678792 -6.652753
v -1.380440 -3.060798 -0.099282
v -1.380440 0.662381 -0.099283
v 1.394518 0.662381 -0.099283
v 1.394518 -3.060798 -0.099282
v -1.380440 -3.060798 -0.653908
v -1.380440 0.662381 -0.653909
v 1.394518 0.662381 -0.653909
v 1.394518 -3.060798 -0.653908
v 0.007040 1.969225 -0.099283
v 0.007040 1.969225 -0.653909
v -1.380440 0.662381 -0.376596
v 1.394518 0.662381 -0.376596
v 0.007040 1.969225 -0.376596
v -0.960441 1.552906 -0.099283
v -0.960441 1.552906 -0.653909
v -0.960441 1.552906 -0.376596
v 0.854882 1.552906 -0.099283
v 0.854882 1.552906 -0.653909
v 0.854882 1.552906 -0.376596
v -3.643421 3.156714 1.268896
v -0.052783 5.844528 1.268896
v -3.643421 3.156713 -6.943882
v -0.052783 5.844527 -6.943882
v 3.647718 3.156714 1.268896
v 0.057082 5.844528 1.268896
v 3.647718 3.156713 -6.943882
v 0.057082 5.844527 -6.943882
v -3.215101 3.182757 0.969965
v -0.057568 5.546363 0.969965
v 0.039045 5.546363 0.969965
v 3.196579 3.182757 0.969965
v -0.077216 5.578439 -6.654123
v -3.297582 3.167798 -6.654123
v 3.241684 3.167798 -6.654123
v 0.021318 5.578439 -6.654123
v -2.391519 2.695078 0.204710
v -2.077982 2.695078 0.327208
v -2.096806 -2.706070 0.309355
v -1.967658 -2.706070 0.606745
v -1.967658 2.695078 0.627261
v -2.096806 2.695078 0.924650
v -2.077982 -2.706070 0.906798
v -2.391519 -2.706070 1.029296
v -2.413148 2.695078 1.029295
v -2.707861 -2.706070 0.924650
v -2.837009 -2.706070 0.627262
v -2.824645 2.695078 0.814975
v -2.707861 2.695078 0.309354
v -2.726685 -2.706070 0.327209
v -2.413148 -2.706070 0.204711
v -2.077982 3.116797 0.327208
v -2.391519 3.116797 0.204710
v -2.096806 3.116797 0.924650
v -1.967658 3.116797 0.627261
v -2.824645 3.116797 0.814975
v -2.413148 3.116797 1.029295
v -2.707861 3.116797 0.309354
v -1.912927 2.868026 0.184376
v -2.387468 2.868026 -0.001027
v -1.941415 2.868026 1.088617
v -1.745946 2.868026 0.638512
v -3.043013 2.868026 0.922621
v -2.420208 2.868026 1.246998
v -2.866261 2.868026 0.157355
v -1.912927 3.145540 0.184376
v -2.387468 3.145540 -0.001027
v -1.941415 3.145540 1.088617
v -1.745946 3.145540 0.638512
v -3.043013 3.145540 0.922621
v -2.420208 3.145540 1.246998
v -2.866261 3.145540 0.157355
v -2.413148 -3.066310 0.204711
v -2.096806 -3.066310 0.309355
v -1.967658 -3.066310 0.606745
v -2.077982 -3.156662 0.906798
v -2.391519 -3.156662 1.029296
v -2.707861 -3.156662 0.924650
v -2.837009 -3.156662 0.627262
v -2.726685 -3.156662 0.327209
v -1.798860 -2.714736 0.606745
v -1.947678 -2.714736 0.986894
v -2.370607 -2.714736 1.221554
v -2.797323 -2.714736 1.036813
v -2.971532 -2.714736 0.627262
v -2.780591 -2.710897 0.246585
v -1.798860 -3.165328 0.606745
v -1.947678 -3.165328 0.986894
v -2.370607 -3.165328 1.221554
v -2.797323 -3.165328 1.036813
v -2.971532 -3.165328 0.627262
v -2.780591 -3.161488 0.246585
v -2.413148 -2.706070 0.204711
v -2.726685 -2.706070 0.327209
v -2.413148 -3.066310 0.204711
v -2.726685 -3.066310 0.327209
v -2.376987 -2.695029 0.059560
v -1.949515 -2.719904 0.257200
v -1.797184 -2.719904 0.607974
v -2.376987 -3.136155 0.059560
v -1.949515 -3.161031 0.257200
v -1.797184 -3.161031 0.607974
v -2.376987 -2.695029 0.059560
v -2.778949 -2.711803 0.247028
v -2.376987 -3.136155 0.059560
v -2.778949 -3.152930 0.247028
v 2.395815 2.695078 0.204710
v 2.082279 2.695078 0.327208
v 2.101102 -2.706070 0.309355
v 1.971954 -2.706070 0.606745
v 1.971954 2.695078 0.627261
v 2.101102 2.695078 0.924650
v 2.082279 -2.706070 0.906798
v 2.395815 -2.706070 1.029296
v 2.417445 2.695078 1.029295
v 2.712158 -2.706070 0.924650
v 2.841306 -2.706070 0.627262
v 2.828940 2.695078 0.814975
v 2.712158 2.695078 0.309354
v 2.730981 -2.706070 0.327209
v 2.417445 -2.706070 0.204711
v 2.082279 3.116797 0.327208
v 2.395815 3.116797 0.204710
v 2.101102 3.116797 0.924650
v 1.971954 3.116797 0.627261
v 2.828941 3.116797 0.814975
v 2.417445 3.116797 1.029295
v 2.712158 3.116797 0.309354
v 1.917223 2.868026 0.184376
v 2.391766 2.868026 -0.001027
v 1.945712 2.868026 1.088617
v 1.750244 2.868026 0.638512
v 3.047310 2.868026 0.922621
v 2.424503 2.868026 1.246998
v 2.870557 2.868026 0.157355
v 1.917223 3.145540 0.184376
v 2.391766 3.145540 -0.001027
v 1.945712 3.145540 1.088617
v 1.750244 3.145540 0.638512
v 3.047310 3.145540 0.922621
v 2.424503 3.145540 1.246998
v 2.870557 3.145540 0.157355
v 2.417445 -3.066310 0.204711
v 2.101102 -3.066310 0.309355
v 1.971954 -3.066310 0.606745
v 2.082279 -3.156662 0.906798
v 2.395815 -3.156662 1.029296
v 2.712158 -3.156662 0.924650
v 2.841306 -3.156662 0.627262
v 2.730981 -3.156662 0.327209
v 1.803156 -2.714736 0.606745
v 1.951974 -2.714736 0.986894
v 2.374904 -2.714736 1.221554
v 2.801620 -2.714736 1.036813
v 2.975829 -2.714736 0.627262
v 2.784887 -2.710897 0.246585
v 1.803156 -3.165328 0.606745
v 1.951974 -3.165328 0.986894
v 2.374904 -3.165328 1.221554
v 2.801620 -3.165328 1.036813
v 2.975829 -3.165328 0.627262
v 2.784887 -3.161488 0.246585
v 2.417445 -2.706070 0.204711
v 2.730981 -2.706070 0.327209
v 2.417445 -3.066310 0.204711
v 2.730981 -3.066310 0.327209
v 2.381283 -2.695029 0.059560
v 1.953813 -2.719904 0.257200
v 1.801480 -2.719904 0.607974
v 2.381283 -3.136155 0.059560
v 1.953813 -3.161031 0.257200
v 1.801480 -3.161031 0.607974
v 2.381283 -2.695029 0.059560
v 2.783245 -2.711803 0.247028
v 2.381283 -3.136155 0.059560
v 2.783245 -3.152930 0.247028
vn -1.0000 -0.0000 -0.0000
vn -0.0000 -0.0000 -1.0000
vn 1.0000 -0.0000 -0.0000
vn -0.0000 -0.0000 1.0000
vn -0.0000 -1.0000 -0.0000
vn -0.0000 1.0000 -0.0000
vn 0.9045 -0.4266 -0.0000
vn -0.4408 -0.8976 -0.0000
vn 0.3953 -0.9186 -0.0000
vn -0.8552 -0.5182 -0.0000
vn -0.5993 0.8006 -0.0000
vn 0.4945 -0.6606 -0.5649
vn 0.5993 0.8006 -0.0000
vn 0.4705 -0.6285 0.6194
vn -0.0000 0.9962 0.0868
vn -0.0000 -0.7080 0.7062
vn -0.4601 -0.6146 0.6408
vn -0.4659 -0.6223 -0.6290
vn -0.0000 0.9993 -0.0382
vn -0.0000 -0.7366 -0.6764
vn -0.9172 -0.0117 0.3983
vn 0.9282 -0.0003 -0.3721
vn 0.9282 0.0003 0.3721
vn 0.3392 -0.0003 0.9407
vn -0.4014 0.0042 0.9159
vn -0.9625 0.0070 -0.2713
vn 0.3392 0.0003 -0.9407
vn -0.3392 -0.0003 -0.9407
vn -0.1256 0.9906 -0.0546
vn 0.0635 -0.9976 -0.0273
vn 0.2428 -0.7449 -0.6214
vn -0.0536 0.9891 0.1371
vn -0.3053 -0.7504 0.5862
vn -0.1308 0.9902 0.0481
vn -0.0437 0.9903 -0.1322
vn 0.0460 0.9892 0.1391
vn 0.3639 -0.0000 -0.9314
vn -0.9743 -0.0000 -0.2250
vn 0.3141 -0.0000 0.9494
vn 0.9172 -0.0000 0.3983
vn -0.3141 -0.0000 -0.9494
vn 0.9386 -0.0000 -0.3451
vn -0.4619 -0.0000 0.8869
vn 0.2028 -0.7635 0.6131
vn -0.6586 -0.7369 -0.1521
vn 0.0669 0.9895 -0.1285
vn 0.6066 -0.7631 -0.2230
vn -0.2090 -0.7465 -0.6317
vn 0.1468 0.9886 0.0339
vn 0.5867 -0.7687 0.2548
vn 0.0846 -0.9919 -0.0943
vn -0.0204 0.9984 0.0523
vn -0.8377 -0.0000 0.5461
vn 0.0811 0.9961 -0.0352
vn 0.0204 -0.9984 -0.0523
vn -0.0621 0.9978 -0.0219
vn 0.9312 -0.0000 0.3645
vn -0.9202 -0.0000 0.3914
vn -0.3973 -0.0000 0.9177
vn 0.4852 -0.0000 0.8744
vn -0.8939 -0.0000 -0.4483
vn 0.0243 0.9985 0.0501
vn 0.0525 0.9984 0.0200
vn 0.0621 -0.9978 0.0219
vn -0.0635 0.9976 0.0273
vn -0.2749 -0.9338 -0.2288
vn 0.8313 -0.0000 -0.5558
vn -0.0243 -0.9985 -0.0501
vn 0.9703 -0.0000 0.2417
vn -0.3639 -0.0000 -0.9314
vn 0.9172 -0.0000 -0.3983
vn 0.4197 -0.0000 -0.9077
vn -0.4227 -0.0000 -0.9063
vn -0.0072 -0.0000 1.0000
vn -0.0128 0.9996 0.0245
vn 0.0284 0.9995 0.0123
vn -0.2274 -0.8414 0.4903
vn 0.2526 -0.8031 0.5396
vn -0.9703 -0.0000 -0.2417
vn -0.4763 -0.8546 0.2069
vn 0.9172 -0.0117 0.3983
vn -0.9282 -0.0003 -0.3721
vn -0.9282 0.0003 0.3721
vn -0.3392 -0.0003 0.9407
vn 0.4014 0.0042 0.9159
vn 0.9625 0.0070 -0.2713
vn -0.3392 0.0003 -0.9407
vn 0.3392 -0.0003 -0.9407
vn 0.1257 0.9906 -0.0546
vn -0.0635 -0.9976 -0.0273
vn -0.2428 -0.7449 -0.6214
vn 0.0536 0.9891 0.1371
vn 0.3053 -0.7504 0.5862
vn 0.1308 0.9902 0.0481
vn 0.0437 0.9903 -0.1322
vn -0.0460 0.9892 0.1391
vn 0.9743 -0.0000 -0.2250
vn -0.3141 -0.0000 0.9494
vn -0.9172 -0.0000 0.3983
vn 0.3141 -0.0000 -0.9494
vn -0.9386 -0.0000 -0.3451
vn 0.4619 -0.0000 0.8869
vn -0.2028 -0.7635 0.6131
vn 0.6586 -0.7369 -0.1521
vn -0.0669 0.9895 -0.1285
vn -0.6066 -0.7631 -0.2230
vn 0.2090 -0.7465 -0.6317
vn -0.1468 0.9886 0.0339
vn -0.5867 -0.7687 0.2548
vn -0.0846 -0.9919 -0.0943
vn 0.0204 0.9984 0.0523
vn 0.8377 -0.0000 0.5461
vn -0.0811 0.9961 -0.0352
vn -0.0204 -0.9984 -0.0523
vn 0.0621 0.9978 -0.0219
vn -0.9312 -0.0000 0.3645
vn 0.9202 -0.0000 0.3914
vn 0.3973 -0.0000 0.9177
vn -0.4852 -0.0000 0.8744
vn 0.8939 -0.0000 -0.4483
vn -0.0243 0.9985 0.0501
vn -0.0525 0.9984 0.0200
vn -0.0621 -0.9978 0.0219
vn 0.0635 0.9976 0.0273
vn 0.2749 -0.9338 -0.2288
vn -0.8313 -0.0000 -0.5558
vn 0.0243 -0.9985 -0.0501
vn -0.9703 -0.0000 0.2417
vn -0.9172 -0.0000 -0.3983
vn -0.4197 -0.0000 -0.9077
vn 0.4227 -0.0000 -0.9063
vn 0.0072 -0.0000 1.0000
vn 0.0128 0.9996 0.0245
vn -0.0284 0.9995 0.0123
vn 0.2274 -0.8414 0.4903
vn -0.2526 -0.8031 0.5396
vn 0.9703 -0.0000 -0.2417
vn 0.4763 -0.8546 0.2069
vt 0.022536 0.199301
vt 0.350336 0.199301
vt 0.350336 0.692783
vt 0.022536 0.692783
vt 0.076297 0.108700
vt 0.343025 0.108700
vt 0.343025 0.442286
vt 0.076297 0.442286
vt 0.089437 0.395059
vt 0.339242 0.395059
vt 0.339242 0.677298
vt 0.089437 0.677298
vt 0.347441 0.206174
vt 0.347441 0.781424
vt 0.197957 0.637566
vt 0.242089 0.594047
vt 0.262720 0.493799
vt 0.242089 0.405948
vt 0.197957 0.350032
vt 0.392406 0.823635
vt 0.498990 0.823635
vt 0.498990 0.930218
vt 0.392406 0.930218
vt 0.326539 0.445387
vt 0.593266 0.445387
vt 0.593266 0.778973
vt 0.326539 0.778973
vt 0.445868 0.614144
vt 0.445868 0.683417
vt 0.426367 0.683417
vt 0.426367 0.614144
vt 0.007678 0.206175
vt 0.013448 0.350032
vt 0.007678 0.781424
vt 0.013448 0.637566
vt 0.992075 0.036693
vt 0.992075 0.618475
vt 0.921026 0.757629
vt 0.807848 0.804080
vt 0.682018 0.757629
vt 0.626721 0.618475
vt 0.626721 0.036693
vt 0.465369 0.128325
vt 0.465369 0.378591
vt 0.445868 0.378591
vt 0.426367 0.378591
vt 0.426366 0.128325
vt 0.338902 0.584601
vt 0.592384 0.573831
vt 0.553473 0.653178
vt 0.369941 0.639986
vt 0.465369 0.683417
vt 0.465369 0.933683
vt 0.426367 0.933683
vt 0.445868 0.453356
vt 0.445868 0.529096
vt 0.426367 0.529096
vt 0.426367 0.453356
vt 0.465369 0.453356
vt 0.465369 0.529096
vt 0.465369 0.614144
vt 0.060103 0.200218
vt 0.250212 0.200218
vt 0.250212 0.436699
vt 0.060103 0.436699
vt 0.358198 0.590727
vt 0.584026 0.590727
vt 0.056197 0.735680
vt 0.246306 0.735680
vt 0.246306 0.972162
vt 0.056197 0.972162
vt 0.458636 0.632519
vt 0.360885 0.396995
vt 0.377450 0.405030
vt 0.458834 0.602110
vt 0.339334 0.606912
vt 0.535666 0.606912
vt 0.535666 0.803244
vt 0.339334 0.803244
vt 0.106271 0.477853
vt 0.307248 0.477853
vt 0.307248 0.727853
vt 0.106271 0.727853
vt 0.301354 0.417285
vt 0.219198 0.614954
vt 0.216387 0.614922
vt 0.135003 0.417842
vt 0.381038 0.572168
vt 0.580677 0.572168
vt 0.563954 0.579646
vt 0.397602 0.580202
vt 0.462230 0.632534
vt 0.461645 0.602143
vt 0.554665 0.564964
vt 0.456370 0.800503
vt 0.455786 0.770112
vt 0.537942 0.572442
vt 0.048828 0.312500
vt 0.298828 0.312500
vt 0.298828 0.562500
vt 0.048828 0.562500
vt 0.584026 0.816556
vt 0.358198 0.816556
vt 0.544537 0.633317
vt 0.294537 0.633317
vt 0.750000 0.500000
vt 0.500000 0.500000
vt 0.495946 0.485636
vt 0.488320 0.017537
vt 0.502392 0.017537
vt 0.545787 0.017537
vt 0.559457 0.017537
vt 0.558394 0.485636
vt 0.544941 0.485636
vt 0.532202 0.017537
vt 0.531118 0.485636
vt 0.517302 0.017537
vt 0.516336 0.485636
vt 0.474626 0.017537
vt 0.473548 0.485636
vt 0.573849 0.017537
vt 0.572914 0.485636
vt 0.588501 0.017537
vt 0.587422 0.485636
vt 0.524043 0.089673
vt 0.520352 0.045560
vt 0.468792 0.054598
vt 0.472483 0.098710
vt 0.561839 0.094239
vt 0.534311 0.117432
vt 0.540010 0.026839
vt 0.561644 0.026839
vt 0.575603 0.098710
vt 0.568087 0.487426
vt 0.582918 0.487426
vt 0.582366 0.493297
vt 0.567567 0.493297
vt 0.506229 0.487426
vt 0.524426 0.487426
vt 0.524996 0.493297
vt 0.506541 0.493297
vt 0.582366 0.502716
vt 0.567567 0.502716
vt 0.486277 0.493297
vt 0.506541 0.502716
vt 0.486277 0.502716
vt 0.539355 0.493297
vt 0.539355 0.502716
vt 0.524996 0.502716
vt 0.553512 0.493297
vt 0.553512 0.502716
vt 0.472467 0.493297
vt 0.472467 0.502716
vt 0.539041 0.487426
vt 0.486503 0.487426
vt 0.553666 0.487426
vt 0.473019 0.487426
vt 0.486442 0.026839
vt 0.484759 0.117432
vt 0.506393 0.117432
vt 0.508077 0.026839
vt 0.527752 0.018998
vt 0.514273 0.018998
vt 0.514984 0.018784
vt 0.528774 0.018784
vt 0.571396 0.386592
vt 0.496805 0.386592
vt 0.468907 0.386592
vt 0.571626 0.018998
vt 0.556998 0.018998
vt 0.556823 0.018657
vt 0.569122 0.018657
vt 0.501974 0.018998
vt 0.489889 0.018998
vt 0.488959 0.018879
vt 0.501890 0.018784
vt 0.556862 0.018784
vt 0.543762 0.018784
vt 0.543762 0.007684
vt 0.556862 0.007684
vt 0.501890 0.007684
vt 0.514984 0.007684
vt 0.528774 0.007684
vt 0.488959 0.007778
vt 0.542580 0.018998
vt 0.585548 0.386592
vt 0.556823 0.005564
vt 0.569122 0.005564
vt 0.584539 0.019270
vt 0.584539 0.006177
vt 0.488935 0.018856
vt 0.474640 0.019270
vt 0.474640 0.006177
vt 0.488935 0.005763
vt 0.476346 0.018998
vt 0.586245 0.018998
s 0
usemtl Material
f 1/1/1 2/2/1 4/3/1 3/4/1
f 3/5/2 4/6/2 8/7/2 7/8/2
f 7/9/3 8/10/3 6/11/3 5/12/3
f 6/13/4 2/14/4 10/15/4 22/16/4 17/17/4 25/18/4 11/19/4
f 3/20/5 7/21/5 5/22/5 1/23/5
f 8/24/6 4/25/6 2/26/6 6/27/6
f 24/28/7 19/29/7 14/30/7 23/31/7
f 5/32/4 6/13/4 11/19/4 12/33/4
f 2/14/4 1/34/4 9/35/4 10/15/4
f 1/34/4 5/32/4 12/33/4 9/35/4
f 16/36/4 15/37/4 26/38/4 18/39/4 23/40/4 14/41/4 13/42/4
f 12/43/1 11/44/1 20/45/1 15/46/1 16/47/1
f 9/48/6 12/49/6 16/50/6 13/51/6
f 10/52/3 9/53/3 13/54/3 14/30/3 19/29/3
f 27/55/8 21/56/8 18/57/8 26/58/8
f 25/59/8 17/60/8 21/56/8 27/55/8
f 22/61/7 10/52/7 19/29/7 24/28/7
f 17/60/9 22/61/9 24/28/9 21/56/9
f 21/56/9 24/28/9 23/31/9 18/57/9
f 11/44/10 25/59/10 27/55/10 20/45/10
f 20/45/10 27/55/10 26/58/10 15/46/10
f 28/62/11 29/63/11 31/64/11 30/65/11
f 30/66/12 31/67/12 40/67/12 41/66/12
f 34/68/13 35/69/13 33/70/13 32/71/13
f 29/72/14 28/73/14 36/74/14 37/75/14
f 30/76/5 34/77/5 32/78/5 28/79/5
f 35/80/6 31/81/6 29/82/6 33/83/6
f 39/84/4 38/85/4 37/86/4 36/87/4
f 28/88/15 32/89/15 39/90/15 36/91/15
f 33/92/16 29/72/16 37/75/16 38/93/16
f 32/94/17 33/95/17 38/96/17 39/97/17
f 41/98/2 40/99/2 43/100/2 42/101/2
f 35/102/18 34/103/18 42/103/18 43/102/18
f 34/104/19 30/105/19 41/105/19 42/104/19
f 31/106/20 35/107/20 43/107/20 40/106/20
f 55/108/21 54/109/21 53/110/21
f 47/111/22 46/112/22 45/113/22 48/114/22
f 50/115/23 47/111/23 48/114/23 49/116/23
f 51/117/24 50/115/24 49/116/24 52/118/24
f 53/110/25 51/117/25 52/118/25 55/108/25
f 57/119/26 54/109/26 55/108/26 56/120/26
f 46/112/27 58/121/27 44/122/27 45/113/27
f 58/121/28 57/123/28 56/124/28 44/122/28
f 62/125/29 61/126/29 75/126/29 76/125/29
f 86/127/30 85/128/30 97/128/30 98/127/30
f 63/129/6 64/130/6 61/126/6 62/125/6 59/131/6 60/132/6 65/133/6
f 45/134/31 44/135/31 67/136/31 66/137/31
f 60/132/32 59/131/32 73/131/32 74/132/32
f 55/138/33 52/139/33 71/140/33 70/141/33
f 59/131/34 62/125/34 76/125/34 73/131/34
f 61/126/35 64/130/35 78/130/35 75/126/35
f 65/133/36 60/132/36 74/132/36 79/133/36
f 66/137/37 67/136/37 74/142/37 73/143/37
f 72/144/38 70/141/38 77/145/38 79/146/38
f 71/140/39 68/147/39 75/148/39 78/149/39
f 68/147/40 69/150/40 76/151/40 75/148/40
f 67/152/41 72/144/41 79/146/41 74/153/41
f 69/150/42 66/137/42 73/143/42 76/151/42
f 70/141/43 71/140/43 78/149/43 77/145/43
f 52/139/44 49/154/44 68/147/44 71/140/44
f 56/155/45 55/138/45 70/141/45 72/144/45
f 64/130/46 63/129/46 77/129/46 78/130/46
f 48/156/47 45/134/47 66/137/47 69/150/47
f 44/157/48 56/155/48 72/144/48 67/152/48
f 63/129/49 65/133/49 79/133/49 77/129/49
f 49/154/50 48/156/50 69/150/50 68/147/50
f 84/158/51 85/128/51 86/127/51 87/159/51 80/160/51 81/126/51 82/125/51 83/161/51
f 51/162/52 53/163/52 91/164/52 90/165/52
f 103/166/53 101/166/53 111/166/53 113/166/53
f 82/167/2 47/167/2 88/167/2 94/167/2
f 58/168/6 80/168/2 102/168/6 100/168/2
f 46/169/54 47/170/54 106/171/54 105/172/54
f 85/128/55 84/158/55 96/158/55 97/128/55
f 54/173/56 57/174/56 93/175/56 92/176/56
f 88/177/57 89/178/57 95/179/57 94/180/57
f 91/164/58 92/176/58 98/181/58 97/182/58
f 90/165/59 91/164/59 97/182/59 96/183/59
f 89/178/60 90/165/60 96/183/60 95/179/60
f 92/176/61 93/175/61 99/184/61 98/181/61
f 50/185/62 51/162/62 90/165/62 89/178/62
f 47/170/63 50/185/63 89/178/63 88/177/63
f 87/159/64 86/127/64 98/127/64 99/159/64
f 53/163/65 54/173/65 92/176/65 91/164/65
f 83/161/66 82/125/66 94/125/66 95/161/66
f 57/166/67 87/166/67 99/166/67 93/166/67
f 84/158/68 83/161/68 95/161/68 96/158/68
f 100/168/69 102/168/69 112/168/69 110/168/69
f 57/166/6 58/186/2 100/186/6 101/166/2
f 87/166/6 57/166/2 101/166/6 103/166/6
f 80/160/70 87/159/70 103/159/70 102/160/70
f 105/172/71 106/171/71 109/187/71 108/188/71
f 104/189/72 105/172/72 108/188/72 107/190/72
f 111/191/73 110/192/73 112/193/73 113/194/73
f 47/167/74 82/167/74 109/167/74 106/167/74
f 101/174/75 100/195/75 110/192/75 111/191/75
f 58/196/76 46/169/76 105/172/76 104/189/76
f 81/126/77 80/160/77 107/160/77 108/126/77
f 102/160/78 103/159/78 113/159/78 112/160/78
f 80/168/79 58/168/79 104/168/79 107/168/79
f 82/125/80 81/126/80 108/126/80 109/125/80
f 125/108/81 123/110/81 124/109/81
f 117/111/82 118/114/82 115/113/82 116/112/82
f 120/115/83 119/116/83 118/114/83 117/111/83
f 121/117/84 122/118/84 119/116/84 120/115/84
f 123/110/85 125/108/85 122/118/85 121/117/85
f 127/119/86 126/120/86 125/108/86 124/109/86
f 116/112/87 115/113/87 114/122/87 128/121/87
f 128/121/88 114/122/88 126/124/88 127/123/88
f 132/125/89 146/125/89 145/126/89 131/126/89
f 156/127/90 168/127/90 167/128/90 155/128/90
f 133/129/6 135/133/6 130/132/6 129/131/6 132/125/6 131/126/6 134/130/6
f 115/134/91 136/137/91 137/136/91 114/135/91
f 130/132/92 144/132/92 143/131/92 129/131/92
f 125/138/93 140/141/93 141/140/93 122/139/93
f 129/131/94 143/131/94 146/125/94 132/125/94
f 131/126/95 145/126/95 148/130/95 134/130/95
f 135/133/96 149/133/96 144/132/96 130/132/96
f 136/137/70 143/143/70 144/142/70 137/136/70
f 142/144/97 149/146/97 147/145/97 140/141/97
f 141/140/98 148/149/98 145/148/98 138/147/98
f 138/147/99 145/148/99 146/151/99 139/150/99
f 137/152/100 144/153/100 149/146/100 142/144/100
f 139/150/101 146/151/101 143/143/101 136/137/101
f 140/141/102 147/145/102 148/149/102 141/140/102
f 122/139/103 141/140/103 138/147/103 119/154/103
f 126/155/104 142/144/104 140/141/104 125/138/104
f 134/130/105 148/130/105 147/129/105 133/129/105
f 118/156/106 139/150/106 136/137/106 115/134/106
f 114/157/107 137/152/107 142/144/107 126/155/107
f 133/129/108 147/129/108 149/133/108 135/133/108
f 119/154/109 138/147/109 139/150/109 118/156/109
f 154/158/110 153/161/110 152/125/110 151/126/110 150/160/110 157/159/110 156/127/110 155/128/110
f 121/162/111 160/165/111 161/164/111 123/163/111
f 173/166/112 183/166/112 181/166/112 171/166/112
f 152/167/2 164/167/2 158/167/2 117/167/2
f 128/168/2 170/168/6 172/168/2 150/168/6
f 116/169/113 175/172/113 176/171/113 117/170/113
f 155/128/114 167/128/114 166/158/114 154/158/114
f 124/173/115 162/176/115 163/175/115 127/174/115
f 158/177/116 164/180/116 165/179/116 159/178/116
f 161/164/117 167/182/117 168/181/117 162/176/117
f 160/165/118 166/183/118 167/182/118 161/164/118
f 159/178/119 165/179/119 166/183/119 160/165/119
f 162/176/120 168/181/120 169/184/120 163/175/120
f 120/185/121 159/178/121 160/165/121 121/162/121
f 117/170/122 158/177/122 159/178/122 120/185/122
f 157/159/123 169/159/123 168/127/123 156/127/123
f 123/163/124 161/164/124 162/176/124 124/173/124
f 153/161/125 165/161/125 164/125/125 152/125/125
f 127/166/126 163/166/126 169/166/126 157/166/126
f 154/158/127 166/158/127 165/161/127 153/161/127
f 170/168/128 180/168/128 182/168/128 172/168/128
f 127/166/2 171/166/6 170/186/2 128/186/6
f 157/166/4 173/166/4 171/166/4 127/166/4
f 150/160/37 172/160/37 173/159/37 157/159/37
f 175/172/129 178/188/129 179/187/129 176/171/129
f 174/189/130 177/190/130 178/188/130 175/172/130
f 181/191/131 183/194/131 182/193/131 180/192/131
f 117/167/132 176/167/132 179/167/132 152/167/132
f 171/174/133 181/191/133 180/192/133 170/195/133
f 128/196/134 174/189/134 175/172/134 116/169/134
f 151/126/135 178/126/135 177/160/135 150/160/135
f 172/160/136 182/160/136 183/159/136 173/159/136
f 150/168/137 177/168/137 174/168/137 128/168/137
f 152/125/138 179/125/138 178/126/138 151/126/138
